<svg xmlns="http://www.w3.org/2000/svg" xmlns:xlink="http://www.w3.org/1999/xlink" version="1.1" width="285.645pt" height="268.073pt" viewBox="0 0 285.645 268.073">
<defs>
<path id="font_0_8" d="M.054992677 .6777344 .035995485 .45280458H.06098938C.06498718 .50479128 .067993167 .5757599 .09899902 .6097412 .1329956 .6447296 .18998719 .64772036 .23599243 .64772036H.26098634C.28799439 .64772036 .31599427 .64772036 .31599427 .613739V.07695007C.31599427 .036972047 .27598573 .030975342 .23999024 .030975342 .22698975 .030975342 .21398926 .031967164 .20399475 .031967164H.17098999V.0009765625H.5499878V.031967164H.48199464C.44299317 .031967164 .40499879 .035964967 .40499879 .07695007V.613739C.40499879 .6427307 .42199708 .64772036 .45999146 .64772036H.4850006C.5309906 .64772036 .58799746 .6447296 .621994 .6097412 .6529999 .5757599 .6559906 .50479128 .6599884 .45280458H.68499758L.66600039 .6777344H.054992677Z"/>
<path id="font_0_20" d="M.026992798 .43138124V.4003601H.041992189C.07499695 .4003601 .10499573 .39735414 .10499573 .35029603V.074020389C.10499573 .032974245 .07699585 .031967164 .032989503 .031967164H.026992798V.0009765625H.2689972V.031967164C.25698854 .031967164 .24299622 .030975342 .23098755 .030975342 .19898987 .030975342 .17199707 .035980226 .17199707 .073013309V.20614624C.17199707 .2912445 .19198609 .42037965 .2899933 .42037965 .2939911 .42037965 .29699708 .42037965 .30099488 .41937257V.41836549C.28599549 .41236878 .27799989 .39634706 .27799989 .38032533 .27799989 .35731507 .29299928 .34129334 .31599427 .33728028 .34498597 .33728028 .3639984 .3553009 .3639984 .38032533 .3639984 .42037965 .32598878 .4423828 .2899933 .4423828 .23098755 .4423828 .17799378 .38934327 .16799927 .33528138L.16699219 .4423828 .026992798 .43138124Z"/>
<path id="font_0_9" d="M.11199951 .3812256C.13699341 .41223146 .18099976 .426239 .21798706 .426239 .2919922 .426239 .32499696 .3592224 .32499696 .288208V.26220704C.20999146 .26220704 .040985109 .22619629 .040985109 .095214847V.08721924C.04899597 .010223389 .1459961-.009765625 .20298767-.009765625 .2539978-.009765625 .31900025 .024230957 .33198548 .07522583H.33299256C.33898927 .032226564 .3659973-.004776001 .41099549-.004776001 .45199586-.004776001 .48799134 .02822876 .49299623 .07322693V.14620972H.46798707V.095214847C.46798707 .068222049 .46299745 .02722168 .43199159 .02722168 .3999939 .02722168 .394989 .066223148 .394989 .09321594V.26020814C.394989 .27320863 .3959961 .28520204 .3959961 .29821778 .3959961 .39523316 .30499269 .4482422 .22200012 .4482422 .15899658 .4482422 .069992069 .41723634 .069992069 .33721925 .069992069 .30822755 .09098816 .28923036 .116989139 .28923036 .14498902 .28923036 .1619873 .31123353 .1619873 .3352356 .1619873 .3642273 .13899231 .38124085 .11199951 .38124085V.3812256M.32499696 .24121094V.14021302C.32499696 .07122803 .2769928 .016220093 .21199036 .01222229H.20799256C.16099549 .01222229 .11898804 .049224855 .11898804 .097213748V.10221863C.12599182 .2032013 .23899842 .23820496 .32499696 .24121094Z"/>
<path id="font_0_15" d="M.036987306 .430542V.3995819H.055999757C.084991458 .3995819 .11099243 .3955841 .11099243 .34962464V.07292175C.11099243 .037963869 .09298706 .031967164 .032989503 .031967164V.0009765625H.24798584V.031967164H.22799683C.20199585 .031967164 .17799378 .034973146 .17799378 .06692505V.44154359L.036987306 .430542M.12098694 .6689453C.09599304 .66589358 .07598877 .64382937 .07598877 .61672976 .07598877 .5876312 .100997928 .5635376 .1289978 .5635376 .1559906 .5635376 .18199158 .58561709 .18199158 .61672976 .18199158 .64582827 .15699768 .6699219 .1289978 .6699219 .12599182 .66993716 .12399292 .6689453 .12098694 .6689453Z"/>
<path id="font_0_18" d="M.03199768 .43138124V.4003601H.04699707C.07998657 .4003601 .10998535 .39735414 .10998535 .35029603V.074020389C.10998535 .032974245 .08198547 .031967164 .037994386 .031967164H.03199768V.0009765625H.2579956V.031967164H.23199463C.20399475 .031967164 .17999268 .035980226 .17999268 .073013309V.25621034C.17999268 .3282776 .21699524 .42037965 .31599427 .42037965 .37998963 .42037965 .38598634 .3513031 .38598634 .30825807V.069000247C.38598634 .034973146 .35699464 .031967164 .32598878 .031967164H.30799867V.0009765625H.5339966V.031967164H.5089874C.48199464 .031967164 .45599366 .035980226 .45599366 .070007327V.28923036C.45599366 .32226563 .45498658 .35630799 .43899537 .38633729 .41600038 .43037416 .36499024 .4423828 .31900025 .4423828 .2579956 .4423828 .19499207 .4003601 .1749878 .34028626L.17399597 .4423828 .03199768 .43138124Z"/>
<path id="font_0_13" d="M.11898804 .02281189V.02180481C.07199097 .012802124 .027999878-.032165529 .027999878-.07914734 .027999878-.1730957 .17199707-.20507813 .24899292-.20507813 .33299256-.20507813 .47099305-.1750946 .47099305-.072143558 .47099305-.0071868898 .4249878 .03781128 .36499024 .05480957 .32899476 .06581116 .2919922 .06680298 .2539978 .06680298H.16299439C.1309967 .06982422 .10598755 .10205078 .10598755 .13427735V.13931275C.10699463 .15238953 .11399841 .17837525 .12399292 .17837525 .13699341 .17538452 .15098572 .16438294 .1659851 .15937805 .18399048 .15338135 .20399475 .15039063 .22299195 .15039063 .30499269 .15039063 .3849945 .21134949 .3849945 .29626466 .3849945 .3302307 .37098695 .37019349 .34399415 .3921814V.39317323C.37098695 .41316224 .39698792 .43113709 .43299867 .43113709 .43598939 .43113709 .43899537 .43113709 .44198609 .43014527 .43299867 .42414857 .4269867 .41714479 .4269867 .40415956 .4269867 .3881836 .43998719 .37419129 .45599366 .37419129 .47299195 .37419129 .4850006 .3881836 .4850006 .40415956 .4850006 .43113709 .46299745 .453125 .43499757 .453125 .3999939 .453125 .3659973 .4391327 .33999635 .41714479 .33699037 .41415406 .33299256 .41015626 .32899476 .40916444H.32798768C.32199098 .40916444 .31399537 .41714479 .30899049 .42015077 .2829895 .43437196 .25299073 .4423828 .22299195 .4423828 .14399719 .4423828 .05899048 .38737489 .05899048 .29638673 .05899048 .26338197 .07199097 .23338318 .09199524 .2073822 .09599304 .2033844 .102996829 .19837952 .102996829 .1933899 .102996829 .18838501 .09700012 .18338013 .09498596 .17938233 .08198547 .15937805 .07499695 .13427735 .07499695 .11010742 .07499695 .07888794 .08898926 .03781128 .11898804 .02281189M.08099365-.08413696V-.07614136C.08099365-.0231781 .1269989 .0078125 .18099976 .0078125H.25898744C.32199098 .0078125 .41799928-.0011901856 .41799928-.07814026 .41799928-.15110779 .31098939-.18208313 .24899292-.18208313 .18299866-.18208313 .09098816-.15209961 .08099365-.08413696M.1349945 .27638246V.28938294C.1349945 .3443756 .147995 .41838075 .22200012 .41838075 .28399659 .41838075 .30899049 .36038209 .30899049 .29638673 .30899049 .25538636 .30099488 .17437744 .22299195 .17437744 .19699097 .17437744 .17199707 .18638611 .15499878 .20838928 .13999939 .2283783 .13798523 .25238038 .1349945 .27638246Z"/>
<path id="font_0_7" d="M.115997318 .048538209C.1789856-.00048828127 .22799683-.021484375 .30499269-.021484375 .42399598-.021484375 .49899293 .08557129 .49899293 .18765259 .49899293 .27072145 .45199586 .34777833 .37199403 .3808136 .31098939 .40582276 .23498535 .40382386 .18199158 .43585206 .14199829 .46087647 .11898804 .50390627 .11898804 .5479431 .11898804 .6269989 .18598938 .67803958 .25698854 .67803958 .35598756 .67803958 .4249878 .59898379 .44099427 .49890138 .44400025 .48388673 .44099427 .4568634 .45899964 .4568634 .46998597 .4568634 .47099305 .46588136 .47099305 .47488404V.6920471C.47099305 .6990509 .46899415 .7060547 .46099855 .7060547 .44599916 .7060547 .43499757 .67803958 .4269867 .66503909 .42099 .6560364 .4139862 .6460266 .4099884 .63601687 .36898805 .6770477 .32199098 .7060547 .25498963 .7060547 .15699768 .7060547 .054992677 .63801577 .054992677 .51091006 .054992677 .40682984 .1309967 .33877564 .22898865 .31774903 .25 .3127594 .269989 .30674745 .29100038 .30174256 .34700013 .2887268 .40299989 .27471925 .4269867 .20266724 .43199159 .18765259 .43499757 .17164612 .43499757 .15663147 .43499757 .08157349 .38398744 .009506226 .2999878 .009506226 .19999695 .009506226 .102996829 .06254578 .08299255 .17764282 .08198547 .18664551 .08099365 .19665528 .07998657 .20567322V.212677C.07998657 .22268677 .07499695 .22767639 .066986087 .22767639 .056991579 .22767639 .054992677 .21968079 .054992677 .212677V-.0074920656C.054992677-.01449585 .056991579-.021484375 .06498718-.021484375 .07998657-.021484375 .09098816 .006515503 .09899902 .019515992 .10499573 .028518677 .11199951 .038528444 .115997318 .048538209Z"/>
<path id="font_0_11" d="M.11199951 .23242188H.3999939C.41099549 .23242188 .41600038 .2394104 .41600038 .250412 .41600038 .35630799 .35099793 .4482422 .23899842 .4482422 .115997318 .4482422 .027999878 .33932496 .027999878 .22039795 .027999878 .12832642 .07899475 .04624939 .16699219 .006225586 .18998719-.003768921 .21699524-.009765625 .24198914-.009765625H.24499512C.32199098-.009765625 .38598634 .0332489 .41299439 .110305789 .4139862 .11331177 .4139862 .11730957 .4139862 .12031555 .4139862 .12731934 .4099884 .13232422 .40299989 .13232422 .3880005 .13232422 .38198854 .0993042 .37599183 .08828735 .35099793 .04425049 .30299378 .0152282719 .25099183 .0152282719 .21398926 .0152282719 .18199158 .036239625 .15499878 .06326294 .114990238 .109313968 .11199951 .17436219 .11199951 .23242188M.11299133 .25341798C.11299133 .33033753 .1539917 .426239 .23599243 .426239H.24099732C.33898927 .41723634 .33799745 .3133545 .34799195 .25341798H.11299133Z"/>
<path id="font_0_22" d="M.14898682 .6152344C.14898682 .54644778 .11999512 .421875 .017990113 .421875V.39987184H.10398865V.1421051C.10398865 .10914612 .10598755 .076171878 .12199402 .047195436 .14399719 .007232666 .19099427-.009765625 .23498535-.009765625 .31698609-.009765625 .33299256 .08216858 .33299256 .14511109V.18206787H.30799867C.30799867 .16708374 .30899049 .15209961 .30899049 .1361084 .30899049 .09214783 .29899598 .0152282719 .23999024 .0152282719 .18299866 .0152282719 .17399597 .08416748 .17399597 .12911988V.39987184H.31599427V.43066407H.17399597V.6152344H.14898682Z"/>
<path id="font_0_1" d="M.58898928 .6199951C.57699587 .6300049 .56599429 .64302065 .55400088 .6530304 .5119934 .68704226 .45899964 .7060547 .40499879 .7060547 .21299744 .7060547 .054992677 .54093936 .054992677 .34178163 .054992677 .14962769 .20698548-.021484375 .40499879-.021484375 .5399933-.021484375 .6519928 .08157349 .6649933 .21968079 .66600039 .22468567 .66600039 .22868347 .66600039 .23368836 .66600039 .2447052 .6629944 .25170899 .6539917 .25170899 .6349945 .25170899 .6399994 .212677 .6359863 .19265747 .61499026 .09156799 .5249939 .009506226 .41600038 .009506226 .34498597 .009506226 .2789917 .042541505 .23199463 .095581058 .1749878 .16062927 .1579895 .24969483 .1579895 .33477784 .1579895 .40283204 .16499329 .47387696 .19599915 .53492739 .23699951 .61499026 .32299806 .6750488 .4139862 .6750488 .5379944 .6750488 .61898806 .5569458 .6319885 .4488678 .6349945 .43785096 .6289978 .41984559 .6499939 .41984559 .6639862 .41984559 .66600039 .4258423 .66600039 .43585206V.6900482C.66600039 .697052 .6649933 .7060547 .6539917 .7060547 .6389923 .7060547 .59199526 .6269989 .58898928 .6199951Z"/>
<path id="font_0_16" d="M.032989503 .68429568V.6532898H.04798889C.084991458 .6532898 .11099243 .64927676 .11099243 .6012573V.0960083C.11099243 .08900452 .11199951 .08200073 .11199951 .07398987 .11199951 .035964967 .084991458 .031967164 .056991579 .031967164H.032989503V.0009765625H.2559967V.031967164H.23098755C.20199585 .031967164 .17799378 .035964967 .17799378 .07499695V.6953125L.032989503 .68429568Z"/>
<path id="font_0_21" d="M.17599488 .4482422C.13899231 .44422914 .099990848 .4372406 .070999149 .41223146 .04699707 .39123536 .032989503 .35723878 .032989503 .32522584 .032989503 .15423584 .31098939 .25123597 .31098939 .10122681 .31098939 .040222169 .2559967 .01222229 .20098877 .01222229 .125 .01222229 .07398987 .066223148 .05999756 .15222168 .057998659 .16122437 .056991579 .17022705 .04499817 .17022705 .036987306 .17022705 .032989503 .16423035 .032989503 .15722656V-.00077819827C.033996583-.0057678224 .036987306-.008773804 .041992189-.009765625H.04399109C.05999756-.009765625 .07598877 .02722168 .08799744 .030227662H.08898926C.09700012 .030227662 .12399292 .0052337648 .14498902-.0017700195 .1619873-.0077667238 .17999268-.009765625 .19799805-.009765625 .2809906-.009765625 .3600006 .034225465 .3600006 .12623596 .3600006 .19223023 .31199647 .24623108 .24598694 .26322938 .18399048 .28022767 .08198547 .28022767 .08198547 .3532257 .08198547 .4142151 .14898682 .42921449 .19299317 .42921449 .24198914 .42921449 .30999757 .40220643 .30999757 .3162079 .30999757 .30722047 .31098939 .2992096 .32199098 .2992096 .33198548 .2992096 .33599855 .30722047 .33599855 .31721498 .33599855 .32221986 .33499146 .32720948 .33499146 .33120729V.4342041C.33499146 .44023133 .33198548 .4482422 .32398988 .4482422 .30799867 .4482422 .2979889 .42323304 .2869873 .42323304H.28599549C.27799989 .42323304 .2619934 .43623353 .25 .44023133 .23199463 .44621278 .21199036 .44921876 .19299317 .44921876 .18699646 .449234 .18199158 .4482422 .17599488 .4482422Z"/>
<path id="font_0_12" d="M.10499573 .43066407H.026992798V.3996582H.10499573V.06893921C.10499573 .034973146 .07598877 .031967164 .04499817 .031967164H.026992798V.0009765625H.25V.031967164H.22599793C.19799805 .031967164 .17199707 .034973146 .17199707 .06893921V.3996582H.33299256C.36099244 .3996582 .3829956 .39466859 .3829956 .3407135 .3829956 .330719 .38198854 .3207245 .38198854 .31072999V.07392883C.38198854 .032974245 .35398866 .031967164 .30999757 .031967164H.3039856V.0009765625H.5269928V.031967164H.5019989C.47399903 .031967164 .44898988 .035964967 .44898988 .07192993V.44267274L.2979889 .43066407H.16899109V.5328064C.16899109 .55685427 .16999817 .57888796 .17999268 .60092166 .20199585 .6519928 .26098634 .6840515 .31698609 .6840515 .34899903 .6840515 .37998963 .6740265 .40299989 .651001 .3769989 .651001 .35499574 .6329651 .35499574 .6059265 .35499574 .5818939 .37399293 .55885317 .40098573 .55885317 .42399598 .55885317 .44499208 .5748749 .44699098 .59991458V.6059265C.44699098 .67503359 .375 .7060547 .31599427 .7060547 .24099732 .7060547 .15098572 .6740265 .115997318 .60092166 .10598755 .57987979 .10499573 .55784609 .10499573 .53482058V.43066407Z"/>
<path id="font_0_2" d="M.033996583 .68359377V.6525879C.04699707 .6525879 .05999756 .6535797 .07199097 .6535797 .10798645 .6535797 .13699341 .6485901 .13699341 .60861209V.07493591C.13699341 .036972047 .10398865 .030975342 .069992069 .030975342 .056991579 .030975342 .04499817 .031967164 .033996583 .031967164V.0009765625H.3809967C.5099945 .0009765625 .6289978 .062942508 .6859894 .2088623 .70098879 .24983216 .70799258 .29281617 .70799258 .33677674 .70799258 .49269105 .6100006 .6605835 .43099977 .68258669 .4149933 .68359377 .397995 .68359377 .38198854 .68359377H.033996583M.6069946 .3117981V.29180909C.59799197 .18487549 .56399539 .07394409 .43899537 .04096985 .40899659 .031967164 .37998963 .031967164 .34899903 .031967164H.2630005C.23999024 .031967164 .22200012 .036972047 .22200012 .06794739 .22200012 .07493591 .22299195 .0819397 .22299195 .0879364V.58062747C.22299195 .5896301 .22200012 .59962466 .22200012 .60861209 .22200012 .64759829 .23699951 .6535797 .2649994 .6535797 .272995 .6535797 .2809906 .6525879 .2869873 .6525879H.35299684C.4229889 .6525879 .49198915 .63760378 .5419922 .57662966 .59599307 .511673 .60798647 .42773438 .60798647 .34477235V.33477784C.60798647 .32678224 .60798647 .3197937 .6069946 .3117981Z"/>
<path id="font_1_10" d="M.09098816 .5329895C.10699463 .59298709 .1749878 .6359863 .23498535 .6359863 .33499146 .6359863 .36898805 .5389862 .36898805 .4619751 .35899354 .35897828 .29599 .28997804 .23098755 .2199707 .17599488 .15997315 .12098694 .096969608 .06298828 .038970949 .054992677 .030975342 .050994874 .024963379 .050994874 .011962891V.0009765625H.43399049L.46199037 .17797852H.43399049C.4269867 .13597107 .42799378 .088974 .3899994 .082962039 .3809967 .081970218 .37199403 .081970218 .3639984 .081970218H.33898927C.30999757 .080963138 .28199769 .07997131 .25299073 .07997131 .21499634 .07997131 .17599488 .080963138 .13798523 .080963138 .19999695 .14097595 .2630005 .19796753 .32798768 .25497438 .3899994 .30897523 .45799256 .37298585 .46199037 .46098329V.46998597C.46199037 .59599307 .35499574 .6669922 .24299622 .6669922 .14498902 .6669922 .050994874 .5899811 .050994874 .48597718 .050994874 .45298768 .07398987 .42997743 .10499573 .42997743 .13198853 .42997743 .15499878 .45298768 .15499878 .48197938 .15499878 .50798037 .13598633 .5339813 .102996829 .5339813 .09899902 .5339813 .09498596 .5339813 .09098816 .5329895Z"/>
<path id="font_1_6" d="M.18998719 .3377533V.3357544C.1559906 .32574464 .117996219 .2947235 .09098816 .2677002 .06098938 .23667908 .042999269 .19364929 .042999269 .1506195 .042999269 .043533327 .1519928-.021484375 .2539978-.021484375 .35598756-.021484375 .46998597 .047531129 .46998597 .16763306 .46998597 .27270509 .3899994 .31674195 .31900025 .3627777 .37799073 .38778688 .44198609 .4438324 .44198609 .5128937 .44198609 .6179657 .34399415 .6669922 .2559967 .6669922H.24699402C.15899658 .6629791 .085998538 .60494998 .070999149 .5138855V.5028839C.070999149 .4368286 .10798645 .38879396 .1619873 .35476686 .17098999 .34877015 .17999268 .3417511 .18998719 .3377533M.09700012 .14160156C.09700012 .14561463 .09599304 .1506195 .09599304 .15461731 .09599304 .22467041 .14898682 .27770997 .20298767 .31173707 .20698548 .31373597 .21199036 .31773377 .21699524 .31773377 .22299195 .31773377 .22999573 .31173707 .23498535 .30873109L.2769928 .28170777C.33399964 .24768067 .4079895 .21566773 .41600038 .14060974 .41600038 .05354309 .33499146 .006515503 .25898744 .006515503 .18099976 .006515503 .10899353 .05253601 .09700012 .14160156M.11898804 .53089907C.11898804 .60295107 .18798828 .6409912 .25299073 .6409912 .31999208 .6409912 .3809967 .60395815 .3939972 .52690127 .3939972 .5228882 .394989 .51989749 .394989 .5168915 .394989 .45884706 .34899903 .41581727 .30599977 .38679505 .3019867 .38479615 .2979889 .38078309 .29299928 .38078309 .2869873 .38078309 .28199769 .38578797 .2769928 .38879396L.19198609 .44284059C.15699768 .46284486 .12399292 .48786927 .11898804 .53089907Z"/>
<path id="font_1_1" d="M.60398867 .6179962C.57598879 .66503909 .49398805 .7020416 .42900086 .7060547H.41799928C.21899414 .7060547 .056991579 .54193118 .056991579 .34277345V.3257599C.069992069 .13059998 .22399903-.021484375 .4139862-.021484375 .5529938-.021484375 .6839905 .08757019 .6839905 .23368836V.24169922C.68299868 .248703 .6759949 .2527008 .6689911 .2527008 .6599884 .2527008 .6559906 .24569702 .6559906 .23669434V.22969055C.6459961 .12760926 .57299807 .009506226 .42599488 .009506226 .34799195 .009506226 .269989 .049545289 .22200012 .112594608 .17199707 .17764282 .15899658 .27072145 .15899658 .34777833 .15899658 .44685365 .18399048 .5459442 .2599945 .61299136 .3039856 .6510315 .3639984 .6750488 .4229889 .6750488 .5519867 .6750488 .6299896 .5619507 .6499939 .4508667 .6519928 .43785096 .6499939 .4188385 .6669922 .4188385 .6819916 .4188385 .6839905 .42684938 .6839905 .43585206V.6580353C.6839905 .6660309 .68499758 .67404177 .68499758 .68304446 .68499758 .6930542 .6839905 .7060547 .6719971 .7060547 .6549988 .7060547 .6279907 .64701846 .60398867 .6179962Z"/>
<path id="font_1_7" d="M.010986328 .24707031V.1850586H.2849884V.24707031H.010986328Z"/>
<path id="font_1_2" d="M.042999269 .68359377V.6525879C.053985597 .6525879 .066986087 .6535797 .07899475 .6535797 .11399841 .6535797 .1459961 .6485901 .1459961 .61061099 .1459961 .60362246 .14498902 .59762576 .14498902 .591629V.10392761C.14498902 .037963869 .08699036 .031967164 .042999269 .031967164V.0009765625H.27799989V.031967164C.23199463 .031967164 .1749878 .03996277 .1749878 .106918338 .1749878 .11691284 .17599488 .12591553 .17599488 .13490296L.1769867 .64360049C.18299866 .62361147 .19198609 .60261538 .19999695 .58262637 .2599945 .43972779 .31498719 .29380799 .37298585 .14889527L.41799928 .034973146C.4229889 .021972657 .4269867 .0009765625 .44400025 .0009765625H.44499208C.46199037 .0019683839 .46598817 .023971558 .47099305 .036972047 .54100039 .21984864 .61499026 .40374757 .68899539 .5856323 .69699099 .60661318 .70799258 .6286011 .71398928 .650589L.71499636 .077941898C.71499636 .036972047 .68299868 .030975342 .651001 .030975342 .6380005 .030975342 .6239929 .031967164 .61299136 .031967164V.0009765625H.897995V.031967164H.85899356C.82699587 .031967164 .79599 .034973146 .79599 .07594299V.60861209C.79599 .64759829 .82899478 .6535797 .8619995 .6535797 .8739929 .6535797 .8869934 .6525879 .897995 .6525879V.68359377H.72499087L.7049866 .68058779 .69499209 .6645813 .47099305 .09892273C.46398927 .11491394 .45799256 .13191223 .45098878 .14889527L.40899659 .25382997C.35899354 .38175965 .30899049 .5096741 .25698854 .63760378L.24699402 .6635895C.23899842 .6795807 .23399353 .68359377 .21598816 .68359377H.042999269Z"/>
<path id="font_1_5" d="M.114990238 .23046875H.41099549C.4229889 .23046875 .42799378 .23646546 .42799378 .24746704 .42799378 .3722992 .35099793 .4482422 .24499512 .4482422 .12298584 .4482422 .027999878 .3423462 .027999878 .22044373 .027999878 .09732056 .125-.009765625 .2619934-.009765625 .33299256-.009765625 .40499879 .040252687 .4249878 .10932922 .42599488 .112335208 .4269867 .11633301 .4269867 .12034607 .4269867 .12734986 .42199708 .13334656 .4139862 .13334656 .3959961 .13334656 .394989 .10331726 .3849945 .08930969 .36099244 .04725647 .31199647 .018234253 .2630005 .018234253H.2559967C.20399475 .020233155 .1579895 .055267335 .13598633 .10232544 .116989139 .1423645 .114990238 .18740845 .114990238 .23046875M.115997318 .25445558C.116989139 .32037355 .14498902 .39726258 .21699524 .4202423 .22499085 .4222412 .23298645 .42323304 .24099732 .42323304 .32699586 .42323304 .35899354 .3343506 .35899354 .25445558H.115997318Z"/>
<path id="font_1_3" d="M.12199402 .38822938C.14898682 .41323854 .18998719 .42323304 .22599793 .42323304 .2619934 .42323304 .29299928 .40423585 .31298829 .37423707 .33198548 .34623719 .33299256 .31523133 .33299256 .28323365V.26522828C.25099183 .2562256 .16899109 .2562256 .099990848 .20422364 .066986087 .17922974 .040985109 .14022827 .040985109 .099227908 .040985109 .018234253 .13899231-.009765625 .20498657-.009765625 .2669983-.009765625 .31298829 .021224976 .34199525 .07322693 .34999085 .032226564 .37399293-.004776001 .41999818-.004776001 .47999574-.004776001 .5069885 .04623413 .5069885 .10122681V.14622498H.47898866V.096221927C.47898866 .068222049 .47299195 .030227662 .44198609 .030227662 .40899659 .030227662 .40699769 .07423401 .40699769 .096221927V.29122926C.40699769 .39624024 .31698609 .4482422 .22799683 .4482422 .1659851 .4482422 .07299805 .42222596 .07299805 .3432312 .07299805 .3162384 .08898926 .29522706 .125 .29522706 .1499939 .29623414 .1659851 .31922914 .1659851 .34223939 .1659851 .36923219 .14498902 .38323976 .12199402 .38822938M.33299256 .24124146V.14222718C.33299256 .07423401 .28399659 .0152282719 .21499634 .0152282719H.20698548C.1599884 .020233155 .12399292 .055221559 .12399292 .100234989 .12399292 .1952362 .23799134 .24124146 .33299256 .24124146Z"/>
<path id="font_1_9" d="M.09098816 .034225465C.12298584 .0022277833 .1639862-.009765625 .20698548-.009765625 .2889862-.009765625 .36999513 .032226564 .36999513 .12922669V.14022827C.3659973 .19622803 .32199098 .2392273 .27198792 .2582245 .24699402 .26722718 .21899414 .27122499 .19299317 .27622987 .15098572 .28422547 .084991458 .29623414 .084991458 .3542328 .084991458 .41223146 .1579895 .426239 .20098877 .426239 .2639923 .426239 .30999757 .38923646 .31599427 .3182373 .31599427 .31022645 .31698609 .30023194 .32899476 .30023194 .33599855 .30023194 .34298707 .30422975 .34399415 .31123353V.43223573C.34399415 .4392395 .34098817 .4482422 .33198548 .4482422 .31698609 .4482422 .30599977 .42323304 .2939911 .42323304H.2919922C.2849884 .42523194 .27799989 .43122865 .27198792 .43423463 .25099183 .44422914 .22499085 .4482422 .20098877 .4482422 .12998963 .4482422 .033996583 .42523194 .033996583 .32322694 .033996583 .222229 .15098572 .20523072 .22299195 .19122315 .2669983 .18322754 .31498719 .15722656 .31900025 .10823059 .31900025 .036224367 .25898744 .0152282719 .20599365 .0152282719H.19599915C.12298584 .019226075 .08299255 .07423401 .06599426 .14323426 .06298828 .15423584 .06298828 .17022705 .04798889 .17022705 .036987306 .17022705 .033996583 .16223145 .033996583 .15322876V.024230957C.033996583 .020233155 .032989503 .0152282719 .032989503 .010223389 .032989503 .00022888184 .034988405-.009765625 .04598999-.009765625 .054992677-.009765625 .06298828 .0022277833 .068984989 .008224487L.07398987 .014221191C.07998657 .021224976 .085998538 .02722168 .09098816 .034225465Z"/>
<path id="font_1_11" d="M.034988405 .430542V.39953614H.04399109C.070999149 .39953614 .10998535 .39753724 .10998535 .3685913 .11199951 .35762025 .11199951 .34762574 .11199951 .33665467V.13700867C.11199951 .107055667 .11299133 .07810974 .12799073 .05116272 .1559906 .0012207031 .21699524-.009765625 .269989-.009765625 .32598878-.009765625 .3789978 .023208619 .397995 .07511902L.39898683-.009765625 .5469971 .0012207031V.032196046H.5299988C.5 .032196046 .46998597 .035186769 .46998597 .08010864V.4423828L.31900025 .43136598V.39953614H.33299256C.3639984 .39953614 .3959961 .3965454 .3959961 .3506317V.15298462C.3899994 .08808899 .35099793 .0152282719 .272995 .0152282719 .23298645 .0152282719 .19699097 .02520752 .18798828 .07711792 .18598938 .096084598 .18598938 .11404419 .18598938 .13301087V.4423828L.034988405 .430542Z"/>
<path id="font_1_8" d="M.02999878 .43138124V.4003601H.04598999C.07598877 .4003601 .10699463 .39735414 .10699463 .35029603V.07394409C.10699463 .03289795 .08099365 .031906129 .02999878 .031906129V.0009765625L.099990848 .00390625H.27398683V.031906129H.23999024C.20599365 .031906129 .17799378 .03590393 .17799378 .07394409V.24215698C.18499756 .31124879 .20399475 .41737367 .30499269 .41737367V.41638185C.29100038 .4093628 .2849884 .39434815 .2849884 .3793335 .2849884 .35229493 .30599977 .33528138 .32998658 .33528138 .35499574 .33528138 .37298585 .35629273 .37298585 .38032533 .37298585 .42137147 .33198548 .4423828 .29699708 .4423828 .23599243 .4423828 .18699646 .39134217 .17298889 .33528138L.17199707 .4423828 .02999878 .43138124Z"/>
<path id="font_1_4" d="M.36299134 .39424134C.34098817 .38623048 .32299806 .37423707 .32299806 .347229 .32299806 .32322694 .33999635 .301239 .36898805 .301239 .394989 .301239 .41600038 .3202362 .41600038 .350235 .41600038 .42123414 .33099366 .44622804 .269989 .4482422H.2599945C.14399719 .4482422 .033996583 .3542328 .033996583 .2182312 .033996583 .096221927 .12998963-.009765625 .2579956-.009765625 .32798768-.009765625 .3919983 .02722168 .41999818 .098236087 .42199708 .10423279 .4269867 .11323547 .4269867 .120224 .4269867 .12823487 .41999818 .13223267 .41299439 .13223267 .3959961 .13223267 .394989 .10623169 .3869934 .09222412 .36299134 .047225954 .31900025 .018234253 .2639923 .018234253 .15499878 .018234253 .12098694 .14323426 .12098694 .2202301 .12098694 .30223084 .14898682 .42022706 .2619934 .42022706 .2889862 .42022706 .31799317 .41622926 .34298707 .40522767 .34999085 .40223695 .35598756 .39723207 .36299134 .39422608V.39424134Z"/>
<path id="font_2_2" d="M.4079895 .40325929C.3959961 .3932495 .3889923 .3772583 .3889923 .36224366 .3889923 .33824159 .4079895 .31524659 .43899537 .31524659 .46899415 .31524659 .48599244 .34024049 .48599244 .36524964 .48599244 .44425965 .375 .44726563 .32798768 .44726563H.31900025C.24798584 .44726563 .18199158 .42726136 .1289978 .3812561 .08099365 .33824159 .054992677 .27723695 .054992677 .21522522 .054992677 .08621216 .17298889-.0087890629 .30499269-.0087890629 .3809967-.0087890629 .45399476 .022201539 .48999024 .09420776 .49299623 .10121155 .49899293 .112213138 .49899293 .12121582 .49899293 .1302185 .48999024 .13522339 .48098756 .13522339 .45999146 .13522339 .45899964 .112213138 .45098878 .09820557 .42599488 .051208497 .37199403 .02720642 .32099916 .02720642 .22499085 .02720642 .14898682 .10221863 .14898682 .21522522 .14898682 .29423524 .17999268 .3892517 .2769928 .40725709 .29299928 .41026307 .30799867 .41026307 .32398988 .41026307 .35198976 .41026307 .37998963 .40725709 .4079895 .40325929Z"/>
<path id="font_2_4" d="M.06399536 .68429568V.64427188H.07899475C.11199951 .64427188 .14199829 .6412811 .14199829 .59425356V.10203552C.14199829 .09503174 .14299011 .08703613 .14299011 .07902527 .14299011 .044006349 .11399841 .041015626 .085998538 .041015626H.06399536V.0009765625L.11999512 .0040130617H.2999878V.041015626H.27598573C.24198914 .041015626 .22200012 .045013429 .22200012 .08102417V.6953125L.06399536 .68429568Z"/>
<path id="font_2_3" d="M.14199829 .22753906H.47999574C.49598695 .22753906 .49899293 .23953247 .49899293 .24952698 .49899293 .3553772 .4269867 .44628907 .29299928 .44628907 .17199707 .44628907 .04699707 .36135865 .04699707 .21951294 .04699707 .08329773 .17599488-.0087890629 .3019867-.0087890629 .37998963-.0087890629 .46899415 .02720642 .49598695 .10934448 .49798585 .113342288 .49899293 .11834717 .49899293 .12336731 .49798585 .13237 .4889984 .13739014 .47999574 .13739014 .46199037 .13739014 .45399476 .10333252 .44099427 .08630371 .4119873 .049240114 .3659973 .030212403 .31999208 .02720642H.30999757C.25 .02720642 .18998719 .060256959 .16299439 .114349368 .1459961 .1493988 .14199829 .1884613 .14199829 .22753906M.14399719 .25852967C.147995 .34039308 .20599365 .4132843 .2919922 .4132843 .3809967 .4132843 .42199708 .33840943 .42599488 .25852967H.14399719Z"/>
<path id="font_2_1" d="M.17399597 .40127564V.4022827C.20399475 .40827943 .23199463 .4132843 .2619934 .4132843 .31799317 .4132843 .3919983 .39027406 .3919983 .2952118V.27120973C.2659912 .27120973 .06399536 .23919678 .06399536 .10620117 .06399536 .018203736 .17098999-.0087890629 .24299622-.0087890629 .30299378-.0087890629 .37599183 .014205933 .40299989 .07119751H.4039917C.4039917 .028198243 .44198609-.0037994385 .48098756-.0037994385 .5279999-.0037994385 .58200076 .022201539 .58999636 .07319641V.14620972H.5529938V.08821106C.5529938 .065200809 .5399933 .03919983 .5139923 .03919983 .47898866 .03919983 .47599793 .078201297 .47599793 .10020447V.25520326C.47599793 .26820375 .47698976 .2802124 .47698976 .2932129 .47698976 .40628053 .35899354 .44628907 .2659912 .44628907 .20098877 .44628907 .100997928 .43928529 .100997928 .36026 .100997928 .33628846 .116989139 .3112793 .14898682 .3112793 .1769867 .3112793 .19799805 .3322754 .19799805 .36027528 .19799805 .37728883 .18998719 .3942871 .17399597 .40127564M.3919983 .24121094V.16220093C.3919983 .13420105 .3919983 .10920715 .3769989 .084198 .35299684 .045196535 .3039856 .02420044 .2579956 .02420044 .21398926 .02420044 .1519928 .050201417 .1519928 .10720825 .1519928 .21020508 .30599977 .24121094 .3919983 .24121094Z"/>
<path id="font_2_5" d="M.06199646 .43040467V.39038087H.07798767C.11399841 .39038087 .14099121 .3863678 .14099121 .32731629V.08105469C.14099121 .042007448 .114990238 .041015626 .06199646 .041015626V.0009765625L.11999512 .0040130617H.3039856V.041015626H.2789917C.25099183 .041015626 .22499085 .044006349 .22499085 .076049808V.25723268C.22499085 .34733583 .2979889 .4084015 .38198854 .4084015H.38398744C.45899964 .4084015 .46398927 .3453369 .46398927 .2982788V.078048709C.46398927 .044006349 .43699647 .041015626 .40699769 .041015626H.3849945V.0009765625L.44299317 .0040130617H.6269989V.041015626H.6009979C.57398989 .041015626 .5479889 .045013429 .5479889 .077041629V.28927613C.5479889 .32731629 .54499819 .37236024 .5159912 .40138246 .48399354 .4333954 .43699647 .44140626 .3939972 .44140626 .32699586 .44140626 .25099183 .4133911 .21899414 .34832765L.21798706 .44140626 .06199646 .43040467Z"/>
<path id="font_0_5" d="M.036987306 .68359377V.6525879C.049987794 .6525879 .06298828 .6535797 .07499695 .6535797 .11099243 .6535797 .13999939 .6485901 .13999939 .60861209V.10292053C.13999939 .037963869 .07998657 .031967164 .036987306 .031967164V.0009765625H.2709961V.031967164C.22599793 .031967164 .16699219 .037963869 .16699219 .106918338 .16699219 .11592102 .16799927 .12591553 .16799927 .13490296L.16899109 .6465912C.17399597 .62561038 .18399048 .60562136 .19198609 .5856323 .2619934 .40074159 .33399964 .21685791 .4059906 .033966066 .4099884 .022964478 .4149933 .0009765625 .42999269 .0009765625H.43099977C.44599916 .0029754639 .44999696 .025970459 .45498658 .037963869 .5269928 .22485352 .60198977 .41374208 .6729889 .60162356 .6799927 .61860659 .6879883 .63560488 .69299319 .6535797L.69400027 .076934818C.69400027 .036972047 .6619873 .030975342 .6299896 .030975342 .6159973 .030975342 .6029968 .031967164 .59098818 .031967164V.0009765625H.8779907V.031967164C.8659973 .031967164 .8529968 .030975342 .84098818 .030975342 .80599978 .030975342 .7749939 .035964967 .7749939 .07493591V.60861209C.7749939 .64759829 .8069916 .6535797 .84098818 .6535797 .85398867 .6535797 .86698916 .6525879 .8779907 .6525879V.68359377H.70399478L.68499758 .68058779 .6749878 .6645813 .45799256 .10192871 .23999024 .6645813 .22999573 .68058779 .21099854 .68359377H.036987306Z"/>
<path id="font_0_14" d="M.010986328 .24511719V.18611145H.2769928V.24511719H.010986328Z"/>
<path id="font_0_10" d="M.026992798 .6843109V.6533203H.04399109C.07499695 .6533203 .10499573 .65031436 .10499573 .6033325V.0012207031L.1289978 .0032196046 .14199829 .020233155 .1659851 .0622406H.16799927C.19198609 .014221191 .25099183-.009765625 .30099488-.009765625 .4249878-.009765625 .5209961 .09825134 .5209961 .21730042 .5209961 .33233644 .43299867 .4423828 .30499269 .4423828 .25299073 .4423828 .20698548 .41737367 .17199707 .37835694V.6953125L.026992798 .6843109M.43598939 .19229126C.43199159 .14427185 .4269867 .102264408 .39698792 .06524658 .37199403 .033233644 .33399964 .01222229 .2939911 .01222229 .25099183 .01222229 .21199036 .037231447 .18899536 .07324219 .18099976 .08425903 .1749878 .09326172 .1749878 .10826111V.27531434C.1749878 .28833009 .17399597 .30133058 .17399597 .31433106 .17399597 .37435914 .24699402 .42037965 .30299378 .42037965 .41099549 .42037965 .43699647 .29432679 .43699647 .21530152 .43699647 .20729065 .43699647 .20028687 .43598939 .19229126Z"/>
<path id="font_0_4" d="M.032989503 .68359377V.6525879C.04598999 .6525879 .05899048 .6535797 .070999149 .6535797 .10699463 .6535797 .13598633 .6485901 .13598633 .60861209V.07493591C.13598633 .036972047 .102996829 .030975342 .068984989 .030975342 .055999757 .030975342 .04399109 .031967164 .032989503 .031967164V.0009765625H.55400088L.58200076 .25883485H.5569916C.548996 .17788697 .5359955 .061950685 .42099 .03996277 .3919983 .031967164 .36299134 .031967164 .33399964 .031967164H.2599945C.23999024 .033966066 .22499085 .038970949 .22499085 .06594849V.60861209C.22499085 .6485901 .26098634 .6535797 .2939911 .6535797 .30499269 .6535797 .31498719 .6525879 .32398988 .6525879H.35299684V.68359377H.032989503Z"/>
<path id="font_0_17" d="M.03199768 .43138124V.4003601H.04699707C.07998657 .4003601 .10998535 .39735414 .10998535 .35029603V.074020389C.10998535 .032974245 .08198547 .031967164 .037994386 .031967164H.03199768V.0009765625H.2579956V.031967164H.23199463C.20399475 .031967164 .17999268 .035980226 .17999268 .073013309V.25621034C.17999268 .32928468 .21998596 .42037965 .31599427 .42037965 .37998963 .42037965 .3869934 .35430909 .3869934 .30825807V.070007327C.3869934 .033966066 .35699464 .031967164 .32398988 .031967164H.30899049V.0009765625H.5349884V.031967164H.5089874C.48098756 .031967164 .45700074 .035980226 .45700074 .073013309V.25621034C.45700074 .32928468 .49699403 .42037965 .59298709 .42037965 .6569977 .42037965 .6639862 .35430909 .6639862 .30825807V.070007327C.6639862 .033966066 .6339874 .031967164 .6009979 .031967164H.58599856V.0009765625H.81199648V.031967164H.79100039C.7609863 .031967164 .73399356 .034973146 .73399356 .070007327V.2962494C.73399356 .33328248 .7319946 .36631776 .70799258 .4003601 .6819916 .43338014 .6389923 .4423828 .598999 .4423828 .5339966 .4423828 .48098756 .4043579 .45399476 .34629823 .43499757 .41737367 .3899994 .4423828 .32099916 .4423828 .25698854 .4423828 .19599915 .402359 .1749878 .34028626L.17399597 .4423828 .03199768 .43138124Z"/>
<path id="font_0_6" d="M.033996583 .68359377V.6525879C.04699707 .6525879 .05999756 .6535797 .07199097 .6535797 .10798645 .6535797 .13699341 .6485901 .13699341 .60861209V.07493591C.13699341 .036972047 .10398865 .030975342 .069992069 .030975342 .056991579 .030975342 .04499817 .031967164 .033996583 .031967164V.0009765625H.32899476V.031967164H.29499818C.25299073 .031967164 .22599793 .033966066 .22599793 .07594299V.31677247H.4099884C.5049896 .323761 .6239929 .38174439 .6239929 .49667359 .6239929 .60261538 .5189972 .67259219 .41799928 .68258669 .40299989 .68356326 .3889923 .6845703 .37399293 .6845703 .35398866 .6845856 .33399964 .68359377 .31498719 .68359377H.033996583M.22299195 .34277345V.62060549C.22299195 .647583 .23999024 .650589 .25898744 .6525879H.33399964C.3899994 .6525879 .45498658 .650589 .49398805 .6036072 .5179901 .57463076 .5209961 .5346527 .5209961 .4986725 .5209961 .46269227 .5179901 .42471314 .49598695 .3947296 .46199037 .35176087 .4039917 .34277345 .35299684 .34277345H.22299195Z"/>
<path id="font_0_19" d="M.23498535 .4482422C.10899353 .43522645 .027999878 .3292389 .027999878 .21322632 .027999878 .100234989 .116989139-.009765625 .25-.009765625 .36999513-.009765625 .47099305 .08822632 .47099305 .2142334 .47099305 .33320619 .3809967 .44921876 .24798584 .44921876 .24398804 .449234 .23899842 .4482422 .23498535 .4482422M.11199951 .19023133V.23423767C.11199951 .31021119 .13598633 .4262085 .24899292 .4262085 .32998658 .4262085 .37599183 .35821534 .3849945 .2822113 .3869934 .2602234 .3869934 .23921204 .3869934 .21722412 .3869934 .15222168 .37998963 .07122803 .31599427 .034225465 .29599 .021224976 .27398683 .0152282719 .25099183 .0152282719 .17799378 .0152282719 .1269989 .07221985 .115997318 .15022278 .11399841 .16322327 .11399841 .17721558 .11199951 .19021607V.19023133Z"/>
<path id="font_0_3" d="M.032989503 .68066409V.6496582C.04598999 .6496582 .05899048 .65065 .070999149 .65065 .10699463 .65065 .13598633 .6456604 .13598633 .6056824V.07495117C.13598633 .036972047 .102996829 .030975342 .068984989 .030975342 .055999757 .030975342 .04399109 .031967164 .032989503 .031967164V.0009765625H.60899356L.651001 .25889588H.6259918C.61099246 .16792298 .598999 .06796265 .48999024 .03996277 .45899964 .032974245 .4269867 .031967164 .394989 .031967164H.2669983C.24699402 .031967164 .22499085 .033966066 .22499085 .063964847V.3388672H.31698609C.35198976 .3388672 .3909912 .3358612 .4099884 .3048706 .42199708 .2838745 .4229889 .2568817 .4229889 .23190308V.22190857H.44799806V.48677064H.4229889V.47677613C.4229889 .42282105 .41099549 .3798523 .35198976 .3718567 .33299256 .3698578 .31399537 .3698578 .29499818 .3698578H.22499085V.61468508C.22499085 .6486511 .24598694 .6496582 .2669983 .6496582H.3869934C.44599916 .6496582 .5189972 .6496582 .55799868 .59669497 .58799746 .5567169 .59298709 .5037689 .598999 .4557953H.6239929L.59599307 .68066409H.032989503Z"/>
<path id="font_0_24" d="M.018997193 .43066407V.3996582H.037994386C.08799744 .3996582 .09199524 .37968446 .12298584 .30378724L.20399475 .10307312C.21998596 .06512451 .23999024-.009765625 .2639923-.009765625 .2869873-.009765625 .30599977 .06213379 .32099916 .09907532L.40499879 .30578614C.42999269 .3677063 .45199586 .3996582 .5079956 .3996582V.43066407H.34700013V.3996582C.36898805 .3996582 .3939972 .38269044 .3939972 .35871888 .3939972 .34573365 .3880005 .3317566 .3829956 .31877137 .35398866 .24786377 .32598878 .17796326 .29699708 .108062747 .2939911 .09907532 .2889862 .09008789 .2869873 .08010864H.28599549C.2789917 .10307312 .2679901 .1260376 .25898744 .14900208L.1769867 .35072328C.17399597 .35871888 .16999817 .36669923 .16999817 .37469483V.37869264C.1749878 .39866639 .20599365 .3996582 .22599793 .3996582V.43066407H.018997193Z"/>
<path id="font_0_23" d="M.03199768 .430542V.39953614H.04598999C.07398987 .39953614 .102996829 .3975525 .10899353 .3675995 .10998535 .35661317 .10998535 .3466339 .10998535 .33566285V.13702393C.10998535 .1040802 .11099243 .073135379 .1289978 .044189454 .1559906 .0012512207 .21299744-.0107421879 .2599945-.0107421879 .30499269-.0107421879 .34599305 .009246826 .37098695 .046188356 .37799073 .056167604 .3849945 .06614685 .3880005 .078125L.3889923-.009750366 .5339966 .0012512207V.032211305H.5189972C.48599244 .032211305 .45599366 .035217287 .45599366 .0801239V.4423828L.30799867 .43136598V.39953614H.32299806C.35598756 .39953614 .38598634 .3965454 .38598634 .3496399V.16896057C.38598634 .09509277 .34799195 .013244629 .2649994 .013244629 .20899964 .013244629 .17999268 .02722168 .17999268 .13302613V.4423828L.03199768 .430542Z"/>
</defs>
<path transform="matrix(1,0,0,-1,21.732,88.875)" d="M41.8411-59.4998H227.15543V-39.20048H41.8411Z" fill="#e0e0e0"/>
<path transform="matrix(1,0,0,-1,21.732,88.875)" stroke-width=".3985" stroke-linecap="butt" stroke-miterlimit="10" stroke-linejoin="miter" fill="none" stroke="#000000" d="M41.8411-59.4998H227.15543V-39.20048H41.8411Z"/>
<path transform="matrix(1,0,0,-1,21.732,95.962009)" d="M14.17339 14.17339C14.17339 16.52176 7.82784 18.42545 0 18.42545-7.82784 18.42545-14.17339 16.52176-14.17339 14.17339-14.17339 11.82501-7.82784 9.92134 0 9.92134 7.82784 9.92134 14.17339 11.82501 14.17339 14.17339ZM0 14.17339" fill="#c0d8c1"/>
<path transform="matrix(1,0,0,-1,21.732,95.962009)" stroke-width=".3985" stroke-linecap="butt" stroke-miterlimit="10" stroke-linejoin="miter" fill="none" stroke="#000000" d="M14.17339 14.17339C14.17339 16.52176 7.82784 18.42545 0 18.42545-7.82784 18.42545-14.17339 16.52176-14.17339 14.17339-14.17339 11.82501-7.82784 9.92134 0 9.92134 7.82784 9.92134 14.17339 11.82501 14.17339 14.17339ZM0 14.17339"/>
<path transform="matrix(1,0,0,-1,21.732,95.962009)" stroke-width=".3985" stroke-linecap="butt" stroke-miterlimit="10" stroke-linejoin="miter" fill="none" stroke="#000000" d="M-14.17339 0C-14.17339-2.34836-7.82784-4.25204 0-4.25204 7.82784-4.25204 14.17339-2.34836 14.17339 0"/>
<path transform="matrix(1,0,0,-1,21.732,95.962009)" stroke-width=".3985" stroke-linecap="butt" stroke-miterlimit="10" stroke-linejoin="miter" fill="none" stroke="#000000" d="M-14.17339 14.17339V0C-14.17339-2.34836-7.82784-4.25204 0-4.25204 7.82784-4.25204 14.17339-2.34836 14.17339 0V14.17339"/>
<use data-text="T" xlink:href="#font_0_8" transform="matrix(9.9626,0,0,-9.9626,3.3199998,114.312)"/>
<use data-text="r" xlink:href="#font_0_20" transform="matrix(9.9626,0,0,-9.9626,9.686102,114.312)"/>
<use data-text="a" xlink:href="#font_0_9" transform="matrix(9.9626,0,0,-9.9626,13.591441,114.312)"/>
<use data-text="i" xlink:href="#font_0_15" transform="matrix(9.9626,0,0,-9.9626,18.57274,114.312)"/>
<use data-text="n" xlink:href="#font_0_18" transform="matrix(9.9626,0,0,-9.9626,21.342345,114.312)"/>
<use data-text="i" xlink:href="#font_0_15" transform="matrix(9.9626,0,0,-9.9626,26.871588,114.312)"/>
<use data-text="n" xlink:href="#font_0_18" transform="matrix(9.9626,0,0,-9.9626,29.641192,114.312)"/>
<use data-text="g" xlink:href="#font_0_13" transform="matrix(9.9626,0,0,-9.9626,35.170434,114.312)"/>
<use data-text="S" xlink:href="#font_0_7" transform="matrix(9.9626,0,0,-9.9626,14.815,126.267)"/>
<use data-text="e" xlink:href="#font_0_11" transform="matrix(9.9626,0,0,-9.9626,20.344243,126.267)"/>
<use data-text="t" xlink:href="#font_0_22" transform="matrix(9.9626,0,0,-9.9626,24.767638,126.267)"/>
<path transform="matrix(1,0,0,-1,100.035,95.962009)" d="M14.17339 14.17339C14.17339 16.52176 7.82784 18.42545 0 18.42545-7.82784 18.42545-14.17339 16.52176-14.17339 14.17339-14.17339 11.82501-7.82784 9.92134 0 9.92134 7.82784 9.92134 14.17339 11.82501 14.17339 14.17339ZM0 14.17339" fill="#f2c1c1"/>
<path transform="matrix(1,0,0,-1,100.035,95.962009)" stroke-width=".3985" stroke-linecap="butt" stroke-miterlimit="10" stroke-linejoin="miter" fill="none" stroke="#000000" d="M14.17339 14.17339C14.17339 16.52176 7.82784 18.42545 0 18.42545-7.82784 18.42545-14.17339 16.52176-14.17339 14.17339-14.17339 11.82501-7.82784 9.92134 0 9.92134 7.82784 9.92134 14.17339 11.82501 14.17339 14.17339ZM0 14.17339"/>
<path transform="matrix(1,0,0,-1,100.035,95.962009)" stroke-width=".3985" stroke-linecap="butt" stroke-miterlimit="10" stroke-linejoin="miter" fill="none" stroke="#000000" d="M-14.17339 0C-14.17339-2.34836-7.82784-4.25204 0-4.25204 7.82784-4.25204 14.17339-2.34836 14.17339 0"/>
<path transform="matrix(1,0,0,-1,100.035,95.962009)" stroke-width=".3985" stroke-linecap="butt" stroke-miterlimit="10" stroke-linejoin="miter" fill="none" stroke="#000000" d="M-14.17339 14.17339V0C-14.17339-2.34836-7.82784-4.25204 0-4.25204 7.82784-4.25204 14.17339-2.34836 14.17339 0V14.17339"/>
<path transform="matrix(1,0,0,-1,21.732,88.875)" stroke-width=".3985" stroke-linecap="butt" stroke-miterlimit="10" stroke-linejoin="miter" fill="none" stroke="#000000" d="M134.19657-11.33876H180.26238V11.33876H134.19657Z"/>
<use data-text="C" xlink:href="#font_0_1" transform="matrix(9.9626,0,0,-9.9626,159.247,92.306)"/>
<use data-text="l" xlink:href="#font_0_16" transform="matrix(9.9626,0,0,-9.9626,166.43999,92.306)"/>
<use data-text="a" xlink:href="#font_0_9" transform="matrix(9.9626,0,0,-9.9626,169.2096,92.306)"/>
<use data-text="s" xlink:href="#font_0_21" transform="matrix(9.9626,0,0,-9.9626,174.19089,92.306)"/>
<use data-text="s" xlink:href="#font_0_21" transform="matrix(9.9626,0,0,-9.9626,178.11615,92.306)"/>
<use data-text="i" xlink:href="#font_0_15" transform="matrix(9.9626,0,0,-9.9626,182.04141,92.306)"/>
<use data-text="f" xlink:href="#font_0_12" transform="matrix(9.9626,0,0,-9.9626,184.81102,92.306)"/>
<use data-text="e" xlink:href="#font_0_11" transform="matrix(9.9626,0,0,-9.9626,190.34026,92.306)"/>
<use data-text="r" xlink:href="#font_0_20" transform="matrix(9.9626,0,0,-9.9626,194.76366,92.306)"/>
<path transform="matrix(1,0,0,-1,266.388,95.962009)" d="M14.17339 14.17339C14.17339 16.52176 7.82784 18.42545 0 18.42545-7.82784 18.42545-14.17339 16.52176-14.17339 14.17339-14.17339 11.82501-7.82784 9.92134 0 9.92134 7.82784 9.92134 14.17339 11.82501 14.17339 14.17339ZM0 14.17339" fill="#c0d8c1"/>
<path transform="matrix(1,0,0,-1,266.388,95.962009)" stroke-width=".3985" stroke-linecap="butt" stroke-miterlimit="10" stroke-linejoin="miter" fill="none" stroke="#000000" d="M14.17339 14.17339C14.17339 16.52176 7.82784 18.42545 0 18.42545-7.82784 18.42545-14.17339 16.52176-14.17339 14.17339-14.17339 11.82501-7.82784 9.92134 0 9.92134 7.82784 9.92134 14.17339 11.82501 14.17339 14.17339ZM0 14.17339"/>
<path transform="matrix(1,0,0,-1,266.388,95.962009)" stroke-width=".3985" stroke-linecap="butt" stroke-miterlimit="10" stroke-linejoin="miter" fill="none" stroke="#000000" d="M-14.17339 0C-14.17339-2.34836-7.82784-4.25204 0-4.25204 7.82784-4.25204 14.17339-2.34836 14.17339 0"/>
<path transform="matrix(1,0,0,-1,266.388,95.962009)" stroke-width=".3985" stroke-linecap="butt" stroke-miterlimit="10" stroke-linejoin="miter" fill="none" stroke="#000000" d="M-14.17339 14.17339V0C-14.17339-2.34836-7.82784-4.25204 0-4.25204 7.82784-4.25204 14.17339-2.34836 14.17339 0V14.17339"/>
<use data-text="T" xlink:href="#font_0_8" transform="matrix(9.9626,0,0,-9.9626,250.452,114.312)"/>
<use data-text="e" xlink:href="#font_0_11" transform="matrix(9.9626,0,0,-9.9626,256.81809,114.312)"/>
<use data-text="s" xlink:href="#font_0_21" transform="matrix(9.9626,0,0,-9.9626,261.2415,114.312)"/>
<use data-text="t" xlink:href="#font_0_22" transform="matrix(9.9626,0,0,-9.9626,265.16676,114.312)"/>
<use data-text="i" xlink:href="#font_0_15" transform="matrix(9.9626,0,0,-9.9626,269.0422,114.312)"/>
<use data-text="n" xlink:href="#font_0_18" transform="matrix(9.9626,0,0,-9.9626,271.8118,114.312)"/>
<use data-text="g" xlink:href="#font_0_13" transform="matrix(9.9626,0,0,-9.9626,277.34104,114.312)"/>
<use data-text="S" xlink:href="#font_0_7" transform="matrix(9.9626,0,0,-9.9626,259.472,126.267)"/>
<use data-text="e" xlink:href="#font_0_11" transform="matrix(9.9626,0,0,-9.9626,265.00123,126.267)"/>
<use data-text="t" xlink:href="#font_0_22" transform="matrix(9.9626,0,0,-9.9626,269.42463,126.267)"/>
<path transform="matrix(1,0,0,-1,144.06,32.999)" d="M22.67752 22.67752C22.67752 26.43471 12.5246 29.48045 0 29.48045-12.5246 29.48045-22.67752 26.43471-22.67752 22.67752-22.67752 18.92032-12.5246 15.87457 0 15.87457 12.5246 15.87457 22.67752 18.92032 22.67752 22.67752ZM0 22.67752" fill="#c0d8c1"/>
<path transform="matrix(1,0,0,-1,144.06,32.999)" stroke-width=".3985" stroke-linecap="butt" stroke-miterlimit="10" stroke-linejoin="miter" fill="none" stroke="#000000" d="M22.67752 22.67752C22.67752 26.43471 12.5246 29.48045 0 29.48045-12.5246 29.48045-22.67752 26.43471-22.67752 22.67752-22.67752 18.92032-12.5246 15.87457 0 15.87457 12.5246 15.87457 22.67752 18.92032 22.67752 22.67752ZM0 22.67752"/>
<path transform="matrix(1,0,0,-1,144.06,32.999)" stroke-width=".3985" stroke-linecap="butt" stroke-miterlimit="10" stroke-linejoin="miter" fill="none" stroke="#000000" d="M-22.67752 0C-22.67752-3.75719-12.5246-6.80293 0-6.80293 12.5246-6.80293 22.67752-3.75719 22.67752 0"/>
<path transform="matrix(1,0,0,-1,144.06,32.999)" stroke-width=".3985" stroke-linecap="butt" stroke-miterlimit="10" stroke-linejoin="miter" fill="none" stroke="#000000" d="M-22.67752 22.67752V0C-22.67752-3.75719-12.5246-6.80293 0-6.80293 12.5246-6.80293 22.67752-3.75719 22.67752 0V22.67752"/>
<use data-text="D" xlink:href="#font_0_2" transform="matrix(9.9626,0,0,-9.9626,127.225,53.901)"/>
<use data-text="a" xlink:href="#font_0_9" transform="matrix(9.9626,0,0,-9.9626,134.83643,53.901)"/>
<use data-text="t" xlink:href="#font_0_22" transform="matrix(9.9626,0,0,-9.9626,139.81772,53.901)"/>
<use data-text="a" xlink:href="#font_0_9" transform="matrix(9.9626,0,0,-9.9626,143.69318,53.901)"/>
<use data-text="s" xlink:href="#font_0_21" transform="matrix(9.9626,0,0,-9.9626,148.67447,53.901)"/>
<use data-text="e" xlink:href="#font_0_11" transform="matrix(9.9626,0,0,-9.9626,152.59973,53.901)"/>
<use data-text="t" xlink:href="#font_0_22" transform="matrix(9.9626,0,0,-9.9626,157.02313,53.901)"/>
<use data-text="2" xlink:href="#font_1_10" transform="matrix(8.9664,0,0,-8.9664,70.411,141.08899)"/>
<use data-text="8" xlink:href="#font_1_6" transform="matrix(8.9664,0,0,-8.9664,75.01973,141.08899)"/>
<use data-text="C" xlink:href="#font_1_1" transform="matrix(8.9664,0,0,-8.9664,82.69496,141.08899)"/>
<use data-text="-" xlink:href="#font_1_7" transform="matrix(8.9664,0,0,-8.9664,89.34803,141.08899)"/>
<use data-text="M" xlink:href="#font_1_2" transform="matrix(8.9664,0,0,-8.9664,92.42351,141.08899)"/>
<use data-text="e" xlink:href="#font_1_5" transform="matrix(8.9664,0,0,-8.9664,100.87882,141.08899)"/>
<use data-text="a" xlink:href="#font_1_3" transform="matrix(8.9664,0,0,-8.9664,104.96751,141.08899)"/>
<use data-text="s" xlink:href="#font_1_9" transform="matrix(8.9664,0,0,-8.9664,109.57623,141.08899)"/>
<use data-text="u" xlink:href="#font_1_11" transform="matrix(8.9664,0,0,-8.9664,113.20763,141.08899)"/>
<use data-text="r" xlink:href="#font_1_8" transform="matrix(8.9664,0,0,-8.9664,118.3364,141.08899)"/>
<use data-text="e" xlink:href="#font_1_5" transform="matrix(8.9664,0,0,-8.9664,121.940898,141.08899)"/>
<use data-text="s" xlink:href="#font_1_9" transform="matrix(8.9664,0,0,-8.9664,126.02958,141.08899)"/>
<use data-text="a" xlink:href="#font_1_3" transform="matrix(8.9664,0,0,-8.9664,212.428,140.474)"/>
<use data-text="c" xlink:href="#font_1_4" transform="matrix(8.9664,0,0,-8.9664,217.03673,140.474)"/>
<use data-text="c" xlink:href="#font_1_4" transform="matrix(8.9664,0,0,-8.9664,221.13437,140.474)"/>
<use data-text="c" xlink:href="#font_2_2" transform="matrix(5.9776,0,0,-5.9776,225.224,141.535)"/>
<use data-text="l" xlink:href="#font_2_4" transform="matrix(5.9776,0,0,-5.9776,228.48777,141.535)"/>
<use data-text="e" xlink:href="#font_2_3" transform="matrix(5.9776,0,0,-5.9776,230.59188,141.535)"/>
<use data-text="a" xlink:href="#font_2_1" transform="matrix(5.9776,0,0,-5.9776,233.85564,141.535)"/>
<use data-text="n" xlink:href="#font_2_5" transform="matrix(5.9776,0,0,-5.9776,237.50795,141.535)"/>
<path transform="matrix(1,0,0,-1,110.296,230.196)" stroke-width=".3985" stroke-linecap="butt" stroke-miterlimit="10" stroke-linejoin="miter" fill="none" stroke="#000000" d="M28.3468 56.69362C28.3468 61.39037 15.6557 65.19774 0 65.19774-15.6557 65.19774-28.3468 61.39037-28.3468 56.69362-28.3468 51.99686-15.6557 48.18948 0 48.18948 15.6557 48.18948 28.3468 51.99686 28.3468 56.69362ZM0 56.69362"/>
<path transform="matrix(1,0,0,-1,110.296,230.196)" stroke-width=".3985" stroke-linecap="butt" stroke-miterlimit="10" stroke-linejoin="miter" fill="none" stroke="#000000" d="M-28.3468 28.3468C-28.3468 23.65004-15.6557 19.84268 0 19.84268 15.6557 19.84268 28.3468 23.65004 28.3468 28.3468"/>
<path transform="matrix(1,0,0,-1,110.296,230.196)" stroke-width=".3985" stroke-linecap="butt" stroke-miterlimit="10" stroke-linejoin="miter" fill="none" stroke="#000000" d="M-28.3468 21.2601C-28.3468 16.56334-15.6557 12.75597 0 12.75597 15.6557 12.75597 28.3468 16.56334 28.3468 21.2601"/>
<path transform="matrix(1,0,0,-1,110.296,230.196)" stroke-width=".3985" stroke-linecap="butt" stroke-miterlimit="10" stroke-linejoin="miter" fill="none" stroke="#000000" d="M-28.3468 0C-28.3468-4.69675-15.6557-8.50412 0-8.50412 15.6557-8.50412 28.3468-4.69675 28.3468 0"/>
<path transform="matrix(1,0,0,-1,110.296,230.196)" stroke-width=".3985" stroke-linecap="butt" stroke-miterlimit="10" stroke-linejoin="miter" fill="none" stroke="#000000" d="M-28.3468 56.69362V0C-28.3468-4.69675-15.6557-8.50412 0-8.50412 15.6557-8.50412 28.3468-4.69675 28.3468 0V56.69362"/>
<path transform="matrix(1,0,0,-1,110.296,230.196)" d="M-28.3468 28.3468C-28.3468 23.65004-15.6557 19.84268 0 19.84268 15.6557 19.84268 28.3468 23.65004 28.3468 28.3468V21.2601C28.3468 16.56334 15.6557 12.75597 0 12.75597-15.6557 12.75597-28.3468 16.56334-28.3468 21.2601V28.3468" fill="#e0e0e0"/>
<path transform="matrix(1,0,0,-1,110.296,230.196)" stroke-width=".3985" stroke-linecap="butt" stroke-miterlimit="10" stroke-linejoin="miter" fill="none" stroke="#000000" d="M-28.3468 28.3468C-28.3468 23.65004-15.6557 19.84268 0 19.84268 15.6557 19.84268 28.3468 23.65004 28.3468 28.3468V21.2601C28.3468 16.56334 15.6557 12.75597 0 12.75597-15.6557 12.75597-28.3468 16.56334-28.3468 21.2601V28.3468"/>
<use data-text="M" xlink:href="#font_0_5" transform="matrix(9.9626,0,0,-9.9626,97.43,252.798)"/>
<use data-text="e" xlink:href="#font_0_11" transform="matrix(9.9626,0,0,-9.9626,106.55574,252.798)"/>
<use data-text="t" xlink:href="#font_0_22" transform="matrix(9.9626,0,0,-9.9626,110.97913,252.798)"/>
<use data-text="a" xlink:href="#font_0_9" transform="matrix(9.9626,0,0,-9.9626,114.85458,252.798)"/>
<use data-text="-" xlink:href="#font_0_14" transform="matrix(9.9626,0,0,-9.9626,119.835887,252.798)"/>
<use data-text="D" xlink:href="#font_0_2" transform="matrix(9.9626,0,0,-9.9626,90.14,264.753)"/>
<use data-text="a" xlink:href="#font_0_9" transform="matrix(9.9626,0,0,-9.9626,97.75143,264.753)"/>
<use data-text="t" xlink:href="#font_0_22" transform="matrix(9.9626,0,0,-9.9626,102.73273,264.753)"/>
<use data-text="a" xlink:href="#font_0_9" transform="matrix(9.9626,0,0,-9.9626,106.60818,264.753)"/>
<use data-text="b" xlink:href="#font_0_10" transform="matrix(9.9626,0,0,-9.9626,111.58948,264.753)"/>
<use data-text="a" xlink:href="#font_0_9" transform="matrix(9.9626,0,0,-9.9626,117.11872,264.753)"/>
<use data-text="s" xlink:href="#font_0_21" transform="matrix(9.9626,0,0,-9.9626,122.10002,264.753)"/>
<use data-text="e" xlink:href="#font_0_11" transform="matrix(9.9626,0,0,-9.9626,126.02528,264.753)"/>
<use data-text="M" xlink:href="#font_0_5" transform="matrix(9.9626,0,0,-9.9626,201.04599,252.798)"/>
<use data-text="e" xlink:href="#font_0_11" transform="matrix(9.9626,0,0,-9.9626,210.17174,252.798)"/>
<use data-text="t" xlink:href="#font_0_22" transform="matrix(9.9626,0,0,-9.9626,214.59514,252.798)"/>
<use data-text="a" xlink:href="#font_0_9" transform="matrix(9.9626,0,0,-9.9626,218.4706,252.798)"/>
<use data-text="-" xlink:href="#font_0_14" transform="matrix(9.9626,0,0,-9.9626,223.45189,252.798)"/>
<use data-text="L" xlink:href="#font_0_4" transform="matrix(9.9626,0,0,-9.9626,197.21399,264.753)"/>
<use data-text="e" xlink:href="#font_0_11" transform="matrix(9.9626,0,0,-9.9626,203.44062,264.753)"/>
<use data-text="a" xlink:href="#font_0_9" transform="matrix(9.9626,0,0,-9.9626,207.86402,264.753)"/>
<use data-text="r" xlink:href="#font_0_20" transform="matrix(9.9626,0,0,-9.9626,212.8453,264.753)"/>
<use data-text="n" xlink:href="#font_0_18" transform="matrix(9.9626,0,0,-9.9626,216.75064,264.753)"/>
<use data-text="e" xlink:href="#font_0_11" transform="matrix(9.9626,0,0,-9.9626,222.27988,264.753)"/>
<use data-text="r" xlink:href="#font_0_20" transform="matrix(9.9626,0,0,-9.9626,226.70328,264.753)"/>
<path transform="matrix(1,0,0,-1,21.732,88.875)" stroke-width=".3985" stroke-linecap="butt" stroke-miterlimit="10" stroke-linejoin="miter" fill="none" stroke="#000000" d="M178.00774-129.96833H206.35453V-107.2908H178.00774Z"/>
<use data-text="m" xlink:href="#font_0_17" transform="matrix(9.9626,0,0,-9.9626,209.761,209.647)"/>
<path transform="matrix(1,0,0,-1,21.732,88.875)" stroke-width=".79701" stroke-linecap="butt" stroke-miterlimit="10" stroke-linejoin="miter" fill="none" stroke="#000000" d="M95.9339 52.7126 21.49358 11.79675"/>
<path transform="matrix(-.87631,.48166,.48166,.87631,45.38576,75.89091)" d="M5.44046 0 1.28699 1.5706 2.66432 0 1.28699-1.5706Z"/>
<path transform="matrix(-.87631,.48166,.48166,.87631,45.38576,75.89091)" stroke-width=".79701" stroke-linecap="butt" stroke-miterlimit="10" stroke-linejoin="miter" fill="none" stroke="#000000" d="M5.44046 0 1.28699 1.5706 2.66432 0 1.28699-1.5706Z"/>
<path transform="matrix(1,0,0,-1,21.732,88.875)" stroke-width=".79701" stroke-linecap="butt" stroke-miterlimit="10" stroke-linejoin="miter" fill="none" stroke="#000000" d="M148.72545 52.7126 223.16579 11.79675"/>
<path transform="matrix(.87631,.48166,.48166,-.87631,242.7376,75.89091)" d="M5.44046 0 1.28699 1.5706 2.66432 0 1.28699-1.5706Z"/>
<path transform="matrix(.87631,.48166,.48166,-.87631,242.7376,75.89091)" stroke-width=".79701" stroke-linecap="butt" stroke-miterlimit="10" stroke-linejoin="miter" fill="none" stroke="#000000" d="M5.44046 0 1.28699 1.5706 2.66432 0 1.28699-1.5706Z"/>
<path transform="matrix(1,0,0,-1,21.732,88.875)" stroke-width=".79701" stroke-linecap="butt" stroke-miterlimit="10" stroke-linejoin="miter" fill="none" stroke="#000000" d="M17.89165 0H56.30151"/>
<path transform="matrix(1,0,0,-1,75.56843,88.875)" d="M5.44046 0 1.28699 1.5706 2.66432 0 1.28699-1.5706Z"/>
<path transform="matrix(1,0,0,-1,75.56843,88.875)" stroke-width=".79701" stroke-linecap="butt" stroke-miterlimit="10" stroke-linejoin="miter" fill="none" stroke="#000000" d="M5.44046 0 1.28699 1.5706 2.66432 0 1.28699-1.5706Z"/>
<use data-text="P" xlink:href="#font_0_6" transform="matrix(9.9626,0,0,-9.9626,46.538003,85.157)"/>
<use data-text="o" xlink:href="#font_0_19" transform="matrix(9.9626,0,0,-9.9626,53.033617,85.157)"/>
<use data-text="i" xlink:href="#font_0_15" transform="matrix(9.9626,0,0,-9.9626,58.014917,85.157)"/>
<use data-text="s" xlink:href="#font_0_21" transform="matrix(9.9626,0,0,-9.9626,60.78452,85.157)"/>
<use data-text="o" xlink:href="#font_0_19" transform="matrix(9.9626,0,0,-9.9626,64.70978,85.157)"/>
<use data-text="n" xlink:href="#font_0_18" transform="matrix(9.9626,0,0,-9.9626,69.691089,85.157)"/>
<path transform="matrix(1,0,0,-1,21.732,88.875)" stroke-width=".79701" stroke-linecap="butt" stroke-miterlimit="10" stroke-linejoin="miter" fill="none" stroke="#000000" d="M96.19516 0H126.1011"/>
<path transform="matrix(1,0,0,-1,145.36803,88.875)" d="M5.44046 0 1.28699 1.5706 2.66432 0 1.28699-1.5706Z"/>
<path transform="matrix(1,0,0,-1,145.36803,88.875)" stroke-width=".79701" stroke-linecap="butt" stroke-miterlimit="10" stroke-linejoin="miter" fill="none" stroke="#000000" d="M5.44046 0 1.28699 1.5706 2.66432 0 1.28699-1.5706Z"/>
<use data-text="T" xlink:href="#font_0_8" transform="matrix(9.9626,0,0,-9.9626,123.162,85.157)"/>
<use data-text="r" xlink:href="#font_0_20" transform="matrix(9.9626,0,0,-9.9626,129.5281,85.157)"/>
<use data-text="a" xlink:href="#font_0_9" transform="matrix(9.9626,0,0,-9.9626,133.43344,85.157)"/>
<use data-text="i" xlink:href="#font_0_15" transform="matrix(9.9626,0,0,-9.9626,138.41474,85.157)"/>
<use data-text="n" xlink:href="#font_0_18" transform="matrix(9.9626,0,0,-9.9626,141.18434,85.157)"/>
<path transform="matrix(1,0,0,-1,21.732,88.875)" stroke-width=".79701" stroke-linecap="butt" stroke-dasharray=".79701,1.99255" stroke-miterlimit="10" stroke-linejoin="miter" fill="none" stroke="#000000" d="M184.2475 0H222.65737"/>
<path transform="matrix(1,0,0,-1,241.92429,88.875)" d="M5.44046 0 1.28699 1.5706 2.66432 0 1.28699-1.5706Z"/>
<path transform="matrix(1,0,0,-1,241.92429,88.875)" stroke-width=".79701" stroke-linecap="butt" stroke-miterlimit="10" stroke-linejoin="miter" fill="none" stroke="#000000" d="M5.44046 0 1.28699 1.5706 2.66432 0 1.28699-1.5706Z"/>
<use data-text="E" xlink:href="#font_0_3" transform="matrix(9.9626,0,0,-9.9626,208.21599,85.157)"/>
<use data-text="v" xlink:href="#font_0_24" transform="matrix(9.9626,0,0,-9.9626,214.99056,85.157)"/>
<use data-text="a" xlink:href="#font_0_9" transform="matrix(9.9626,0,0,-9.9626,219.6929,85.157)"/>
<use data-text="l" xlink:href="#font_0_16" transform="matrix(9.9626,0,0,-9.9626,224.6742,85.157)"/>
<use data-text="u" xlink:href="#font_0_23" transform="matrix(9.9626,0,0,-9.9626,227.4438,85.157)"/>
<use data-text="a" xlink:href="#font_0_9" transform="matrix(9.9626,0,0,-9.9626,232.97304,85.157)"/>
<use data-text="t" xlink:href="#font_0_22" transform="matrix(9.9626,0,0,-9.9626,237.95433,85.157)"/>
<use data-text="e" xlink:href="#font_0_11" transform="matrix(9.9626,0,0,-9.9626,241.82979,85.157)"/>
<path transform="matrix(1,0,0,-1,21.732,88.875)" stroke-width=".79701" stroke-linecap="butt" stroke-miterlimit="10" stroke-linejoin="miter" fill="none" stroke="#000000" d="M78.30351-15.05699V-32.74059"/>
<path transform="matrix(0,1,1,0,100.035518,119.15051)" d="M5.44046 0 1.28699 1.5706 2.66432 0 1.28699-1.5706Z"/>
<path transform="matrix(0,1,1,0,100.035518,119.15051)" stroke-width=".79701" stroke-linecap="butt" stroke-miterlimit="10" stroke-linejoin="miter" fill="none" stroke="#000000" d="M5.44046 0 1.28699 1.5706 2.66432 0 1.28699-1.5706Z"/>
<path transform="matrix(1,0,0,-1,21.732,88.875)" stroke-width=".79701" stroke-linecap="butt" stroke-miterlimit="10" stroke-linejoin="miter" fill="none" stroke="#000000" d="M205.5076-4.1895V-31.60625"/>
<path transform="matrix(0,1,1,0,227.2396,118.01616)" d="M5.44046 0 1.28699 1.5706 2.66432 0 1.28699-1.5706Z"/>
<path transform="matrix(0,1,1,0,227.2396,118.01616)" stroke-width=".79701" stroke-linecap="butt" stroke-miterlimit="10" stroke-linejoin="miter" fill="none" stroke="#000000" d="M5.44046 0 1.28699 1.5706 2.66432 0 1.28699-1.5706Z"/>
<path transform="matrix(1,0,0,-1,21.732,88.875)" stroke-width=".79701" stroke-linecap="butt" stroke-miterlimit="10" stroke-linejoin="miter" fill="none" stroke="#000000" d="M134.49826-59.69905V-63.90594C134.49826-66.65712 132.26805-68.88733 129.51688-68.88733H50.14223C47.39105-68.88733 45.16084-71.11754 45.16084-73.86871V-113.64818C45.16084-116.39935 47.39105-118.62956 50.14223-118.62956H52.38904"/>
<path transform="matrix(1,0,0,-1,71.65597,207.50457)" d="M5.44046 0 1.28699 1.5706 2.66432 0 1.28699-1.5706Z"/>
<path transform="matrix(1,0,0,-1,71.65597,207.50457)" stroke-width=".79701" stroke-linecap="butt" stroke-miterlimit="10" stroke-linejoin="miter" fill="none" stroke="#000000" d="M5.44046 0 1.28699 1.5706 2.66432 0 1.28699-1.5706Z"/>
<path transform="matrix(1,0,0,-1,21.732,88.875)" stroke-width=".79701" stroke-linecap="butt" stroke-miterlimit="10" stroke-linejoin="miter" fill="none" stroke="#000000" d="M120.62952-118.62956H169.91228"/>
<path transform="matrix(1,0,0,-1,189.1792,207.50457)" d="M5.44046 0 1.28699 1.5706 2.66432 0 1.28699-1.5706Z"/>
<path transform="matrix(1,0,0,-1,189.1792,207.50457)" stroke-width=".79701" stroke-linecap="butt" stroke-miterlimit="10" stroke-linejoin="miter" fill="none" stroke="#000000" d="M5.44046 0 1.28699 1.5706 2.66432 0 1.28699-1.5706Z"/>
<use data-text="T" xlink:href="#font_0_8" transform="matrix(9.9626,0,0,-9.9626,157.284,203.785)"/>
<use data-text="r" xlink:href="#font_0_20" transform="matrix(9.9626,0,0,-9.9626,163.6501,203.785)"/>
<use data-text="a" xlink:href="#font_0_9" transform="matrix(9.9626,0,0,-9.9626,167.55544,203.785)"/>
<use data-text="i" xlink:href="#font_0_15" transform="matrix(9.9626,0,0,-9.9626,172.53673,203.785)"/>
<use data-text="n" xlink:href="#font_0_18" transform="matrix(9.9626,0,0,-9.9626,175.30634,203.785)"/>
</svg>
